<?xml version="1.0" standalone="no"?>
<!DOCTYPE svg PUBLIC "-//W3C//DTD SVG 20010904//EN"
 "http://www.w3.org/TR/2001/REC-SVG-20010904/DTD/svg10.dtd">
<svg version="1.0" xmlns="http://www.w3.org/2000/svg"
 width="512.000000pt" height="512.000000pt" viewBox="0 0 512.000000 512.000000"
 preserveAspectRatio="xMidYMid meet">
<metadata>
Created by potrace 1.14, written by Peter Selinger 2001-2017
</metadata>
<g transform="translate(0.000000,512.000000) scale(0.100000,-0.100000)"
fill="#000000" stroke="none">
<path d="M2560 4694 l0 -214 43 -1 c85 -2 225 -14 272 -25 11 -2 31 -6 45 -8
96 -16 258 -64 358 -105 245 -102 443 -233 632 -421 362 -359 559 -820 569
-1328 l1 -32 213 2 212 3 0 65 c0 36 -3 92 -7 125 -3 33 -9 87 -13 120 -16
151 -72 364 -142 545 -29 76 -129 283 -153 320 -10 14 -37 57 -61 95 -24 39
-52 82 -64 96 -11 14 -31 41 -45 59 -159 216 -431 454 -682 599 -245 141 -548
250 -793 286 -27 4 -61 9 -75 11 -42 6 -141 14 -227 19 l-83 4 0 -215z"/>
<path d="M2560 3842 l0 -220 28 3 c41 3 180 -16 257 -36 57 -15 201 -77 260
-113 262 -158 441 -412 500 -711 9 -44 17 -107 19 -140 l3 -60 212 -3 c165 -2
211 0 212 10 5 76 -17 251 -48 367 -47 179 -115 324 -229 487 -64 93 -206 245
-279 299 -22 16 -42 32 -45 35 -17 19 -150 99 -235 140 -176 87 -394 144 -565
149 -41 1 -77 4 -82 7 -4 3 -8 -94 -8 -214z"/>
<path d="M2560 2881 l0 -321 321 0 321 0 -6 63 c-13 147 -75 276 -186 387
-110 110 -234 170 -387 186 l-63 6 0 -321z"/>
<path d="M216 2341 c-2 -3 -3 -291 -2 -640 l1 -634 426 0 425 -1 0 -210 -1
-211 -425 -5 -425 -5 0 -210 0 -210 445 -1 c482 -1 519 2 612 53 50 27 124 97
158 148 11 17 29 59 41 95 19 58 22 89 23 300 0 129 -2 266 -6 303 -17 168
-140 315 -303 362 -47 14 -105 18 -302 18 l-243 1 0 213 0 213 320 0 320 0 0
213 0 214 -530 0 c-292 0 -532 -3 -534 -6z"/>
<path d="M2269 2339 c-122 -18 -254 -122 -312 -246 l-32 -68 0 -905 0 -905
742 -1 741 -1 4 31 c6 60 2 1236 -5 1243 -7 7 -572 11 -613 5 -20 -4 -21 -8
-21 -213 0 -184 2 -209 16 -210 9 -1 57 -1 106 -1 l91 0 0 -214 1 -214 -318 0
c-297 0 -319 1 -320 18 0 9 -1 297 -2 639 l-2 623 535 0 535 0 -2 202 c-1 112
-2 208 -2 214 -1 12 -1062 15 -1142 3z"/>
</g>
</svg>
